<mxfile host="app.diagrams.net" agent="Mozilla/5.0 (Windows NT 10.0; Win64; x64) AppleWebKit/537.36 (KHTML, like Gecko) Chrome/128.0.0.0 Safari/537.36 Edg/128.0.0.0" version="24.7.7">
  <diagram name="PÃ¡gina-1" id="GVC7hO63HgW71SjGS97w">
    <mxGraphModel dx="880" dy="482" grid="1" gridSize="10" guides="1" tooltips="1" connect="1" arrows="1" fold="1" page="1" pageScale="1" pageWidth="827" pageHeight="1169" math="0" shadow="0">
      <root>
        <mxCell id="0" />
        <mxCell id="1" parent="0" />
        <mxCell id="y5beqrXCLq72eDog2Nmg-4" style="edgeStyle=orthogonalEdgeStyle;rounded=0;orthogonalLoop=1;jettySize=auto;html=1;exitX=0.5;exitY=1;exitDx=0;exitDy=0;entryX=0.5;entryY=0;entryDx=0;entryDy=0;" edge="1" parent="1" source="y5beqrXCLq72eDog2Nmg-2" target="y5beqrXCLq72eDog2Nmg-3">
          <mxGeometry relative="1" as="geometry" />
        </mxCell>
        <mxCell id="y5beqrXCLq72eDog2Nmg-2" value="inicio" style="ellipse;whiteSpace=wrap;html=1;" vertex="1" parent="1">
          <mxGeometry x="354" y="100" width="120" height="80" as="geometry" />
        </mxCell>
        <mxCell id="y5beqrXCLq72eDog2Nmg-6" style="edgeStyle=orthogonalEdgeStyle;rounded=0;orthogonalLoop=1;jettySize=auto;html=1;exitX=0.5;exitY=1;exitDx=0;exitDy=0;entryX=0.5;entryY=0;entryDx=0;entryDy=0;" edge="1" parent="1" source="y5beqrXCLq72eDog2Nmg-3" target="y5beqrXCLq72eDog2Nmg-5">
          <mxGeometry relative="1" as="geometry" />
        </mxCell>
        <mxCell id="y5beqrXCLq72eDog2Nmg-3" value="CombL&lt;div&gt;Km&lt;/div&gt;&lt;div&gt;ConsM&lt;/div&gt;" style="shape=hexagon;perimeter=hexagonPerimeter2;whiteSpace=wrap;html=1;fixedSize=1;" vertex="1" parent="1">
          <mxGeometry x="354" y="200" width="120" height="80" as="geometry" />
        </mxCell>
        <mxCell id="y5beqrXCLq72eDog2Nmg-9" style="edgeStyle=orthogonalEdgeStyle;rounded=0;orthogonalLoop=1;jettySize=auto;html=1;exitX=0.5;exitY=1;exitDx=0;exitDy=0;entryX=0.5;entryY=0;entryDx=0;entryDy=0;" edge="1" parent="1" source="y5beqrXCLq72eDog2Nmg-5" target="y5beqrXCLq72eDog2Nmg-8">
          <mxGeometry relative="1" as="geometry" />
        </mxCell>
        <mxCell id="y5beqrXCLq72eDog2Nmg-5" value="ler CombL&lt;div&gt;ler Km&lt;/div&gt;" style="shape=parallelogram;perimeter=parallelogramPerimeter;whiteSpace=wrap;html=1;fixedSize=1;" vertex="1" parent="1">
          <mxGeometry x="354" y="310" width="120" height="60" as="geometry" />
        </mxCell>
        <mxCell id="y5beqrXCLq72eDog2Nmg-8" value="ConsM = Km / CombL" style="rounded=0;whiteSpace=wrap;html=1;" vertex="1" parent="1">
          <mxGeometry x="354" y="400" width="126" height="70" as="geometry" />
        </mxCell>
        <mxCell id="y5beqrXCLq72eDog2Nmg-15" style="edgeStyle=orthogonalEdgeStyle;rounded=0;orthogonalLoop=1;jettySize=auto;html=1;exitX=0.5;exitY=1;exitDx=0;exitDy=0;exitPerimeter=0;entryX=0.5;entryY=0;entryDx=0;entryDy=0;" edge="1" parent="1" source="y5beqrXCLq72eDog2Nmg-10" target="y5beqrXCLq72eDog2Nmg-14">
          <mxGeometry relative="1" as="geometry" />
        </mxCell>
        <mxCell id="y5beqrXCLq72eDog2Nmg-10" value="ConsM" style="strokeWidth=2;html=1;shape=mxgraph.flowchart.display;whiteSpace=wrap;" vertex="1" parent="1">
          <mxGeometry x="350" y="500" width="120" height="70" as="geometry" />
        </mxCell>
        <mxCell id="y5beqrXCLq72eDog2Nmg-13" style="edgeStyle=orthogonalEdgeStyle;rounded=0;orthogonalLoop=1;jettySize=auto;html=1;exitX=0.5;exitY=1;exitDx=0;exitDy=0;entryX=0.567;entryY=0.014;entryDx=0;entryDy=0;entryPerimeter=0;" edge="1" parent="1" source="y5beqrXCLq72eDog2Nmg-8" target="y5beqrXCLq72eDog2Nmg-10">
          <mxGeometry relative="1" as="geometry" />
        </mxCell>
        <mxCell id="y5beqrXCLq72eDog2Nmg-14" value="fim" style="ellipse;whiteSpace=wrap;html=1;" vertex="1" parent="1">
          <mxGeometry x="354" y="600" width="120" height="80" as="geometry" />
        </mxCell>
      </root>
    </mxGraphModel>
  </diagram>
</mxfile>
